<svg id="visual" viewBox="0 0 900 600" width="900" height="600" xmlns="http://www.w3.org/2000/svg" xmlns:xlink="http://www.w3.org/1999/xlink" version="1.1"><rect x="0" y="0" width="900" height="600" fill="#ffffff"></rect><path d="M0 31L75 29.2C150 27.3 300 23.7 450 28C600 32.3 750 44.7 825 50.8L900 57L900 601L825 601C750 601 600 601 450 601C300 601 150 601 75 601L0 601Z" fill="#ff0000"></path><path d="M0 60L75 65.3C150 70.7 300 81.3 450 90.2C600 99 750 106 825 109.5L900 113L900 601L825 601C750 601 600 601 450 601C300 601 150 601 75 601L0 601Z" fill="#ff0027"></path><path d="M0 131L75 133.8C150 136.7 300 142.3 450 148.8C600 155.3 750 162.7 825 166.3L900 170L900 601L825 601C750 601 600 601 450 601C300 601 150 601 75 601L0 601Z" fill="#ff003f"></path><path d="M0 220L75 214.5C150 209 300 198 450 186.3C600 174.7 750 162.3 825 156.2L900 150L900 601L825 601C750 601 600 601 450 601C300 601 150 601 75 601L0 601Z" fill="#ff0055"></path><path d="M0 198L75 203.2C150 208.3 300 218.7 450 226C600 233.3 750 237.7 825 239.8L900 242L900 601L825 601C750 601 600 601 450 601C300 601 150 601 75 601L0 601Z" fill="#ff0069"></path><path d="M0 290L75 281.8C150 273.7 300 257.3 450 253.3C600 249.3 750 257.7 825 261.8L900 266L900 601L825 601C750 601 600 601 450 601C300 601 150 601 75 601L0 601Z" fill="#fd007c"></path><path d="M0 327L75 330.2C150 333.3 300 339.7 450 335.7C600 331.7 750 317.3 825 310.2L900 303L900 601L825 601C750 601 600 601 450 601C300 601 150 601 75 601L0 601Z" fill="#f5008d"></path><path d="M0 366L75 361.7C150 357.3 300 348.7 450 354.8C600 361 750 382 825 392.5L900 403L900 601L825 601C750 601 600 601 450 601C300 601 150 601 75 601L0 601Z" fill="#e900a0"></path><path d="M0 396L75 398.8C150 401.7 300 407.3 450 411.3C600 415.3 750 417.7 825 418.8L900 420L900 601L825 601C750 601 600 601 450 601C300 601 150 601 75 601L0 601Z" fill="#d500b7"></path><path d="M0 484L75 476.7C150 469.3 300 454.7 450 447C600 439.3 750 438.7 825 438.3L900 438L900 601L825 601C750 601 600 601 450 601C300 601 150 601 75 601L0 601Z" fill="#b700cf"></path><path d="M0 490L75 498C150 506 300 522 450 521.8C600 521.7 750 505.3 825 497.2L900 489L900 601L825 601C750 601 600 601 450 601C300 601 150 601 75 601L0 601Z" fill="#8800e7"></path><path d="M0 522L75 531.3C150 540.7 300 559.3 450 562.8C600 566.3 750 554.7 825 548.8L900 543L900 601L825 601C750 601 600 601 450 601C300 601 150 601 75 601L0 601Z" fill="#0022ff"></path></svg>