<svg id="visual" viewBox="0 0 900 600" width="900" height="600" xmlns="http://www.w3.org/2000/svg" xmlns:xlink="http://www.w3.org/1999/xlink" version="1.1"><rect x="0" y="0" width="900" height="600" fill="#001220"></rect><path d="M0 437L21.5 432.7C43 428.3 86 419.7 128.8 409.7C171.7 399.7 214.3 388.3 257.2 386.7C300 385 343 393 385.8 399C428.7 405 471.3 409 514.2 407.3C557 405.7 600 398.3 642.8 400.3C685.7 402.3 728.3 413.7 771.2 407.5C814 401.3 857 377.7 878.5 365.8L900 354L900 601L878.5 601C857 601 814 601 771.2 601C728.3 601 685.7 601 642.8 601C600 601 557 601 514.2 601C471.3 601 428.7 601 385.8 601C343 601 300 601 257.2 601C214.3 601 171.7 601 128.8 601C86 601 43 601 21.5 601L0 601Z" fill="#fa7268"></path><path d="M0 449L21.5 451.3C43 453.7 86 458.3 128.8 462.7C171.7 467 214.3 471 257.2 464.7C300 458.3 343 441.7 385.8 432C428.7 422.3 471.3 419.7 514.2 424.7C557 429.7 600 442.3 642.8 449.3C685.7 456.3 728.3 457.7 771.2 449.5C814 441.3 857 423.7 878.5 414.8L900 406L900 601L878.5 601C857 601 814 601 771.2 601C728.3 601 685.7 601 642.8 601C600 601 557 601 514.2 601C471.3 601 428.7 601 385.8 601C343 601 300 601 257.2 601C214.3 601 171.7 601 128.8 601C86 601 43 601 21.5 601L0 601Z" fill="#ef5f67"></path><path d="M0 468L21.5 473.5C43 479 86 490 128.8 493.3C171.7 496.7 214.3 492.3 257.2 483.3C300 474.3 343 460.7 385.8 460.2C428.7 459.7 471.3 472.3 514.2 483C557 493.7 600 502.3 642.8 505.8C685.7 509.3 728.3 507.7 771.2 496.5C814 485.3 857 464.7 878.5 454.3L900 444L900 601L878.5 601C857 601 814 601 771.2 601C728.3 601 685.7 601 642.8 601C600 601 557 601 514.2 601C471.3 601 428.7 601 385.8 601C343 601 300 601 257.2 601C214.3 601 171.7 601 128.8 601C86 601 43 601 21.5 601L0 601Z" fill="#e34c67"></path><path d="M0 521L21.5 522.8C43 524.7 86 528.3 128.8 522.5C171.7 516.7 214.3 501.3 257.2 501.3C300 501.3 343 516.7 385.8 524.5C428.7 532.3 471.3 532.7 514.2 533.5C557 534.3 600 535.7 642.8 533.7C685.7 531.7 728.3 526.3 771.2 524.2C814 522 857 523 878.5 523.5L900 524L900 601L878.5 601C857 601 814 601 771.2 601C728.3 601 685.7 601 642.8 601C600 601 557 601 514.2 601C471.3 601 428.7 601 385.8 601C343 601 300 601 257.2 601C214.3 601 171.7 601 128.8 601C86 601 43 601 21.5 601L0 601Z" fill="#d53867"></path><path d="M0 557L21.5 551.7C43 546.3 86 535.7 128.8 537C171.7 538.3 214.3 551.7 257.2 557.7C300 563.7 343 562.3 385.8 558C428.7 553.7 471.3 546.3 514.2 543.3C557 540.3 600 541.7 642.8 540.8C685.7 540 728.3 537 771.2 538C814 539 857 544 878.5 546.5L900 549L900 601L878.5 601C857 601 814 601 771.2 601C728.3 601 685.7 601 642.8 601C600 601 557 601 514.2 601C471.3 601 428.7 601 385.8 601C343 601 300 601 257.2 601C214.3 601 171.7 601 128.8 601C86 601 43 601 21.5 601L0 601Z" fill="#c62368"></path></svg>