<svg id="visual" viewBox="0 0 900 600" width="900" height="600" xmlns="http://www.w3.org/2000/svg" xmlns:xlink="http://www.w3.org/1999/xlink" version="1.1"><path d="M0 317L21.5 317.5C43 318 86 319 128.8 333.2C171.7 347.3 214.3 374.7 257.2 388.7C300 402.7 343 403.3 385.8 387.7C428.7 372 471.3 340 514.2 330.2C557 320.3 600 332.7 642.8 352.5C685.7 372.3 728.3 399.7 771.2 411.3C814 423 857 419 878.5 417L900 415L900 601L878.5 601C857 601 814 601 771.2 601C728.3 601 685.7 601 642.8 601C600 601 557 601 514.2 601C471.3 601 428.7 601 385.8 601C343 601 300 601 257.2 601C214.3 601 171.7 601 128.8 601C86 601 43 601 21.5 601L0 601Z" fill="#fd4d4d" stroke-linecap="round" stroke-linejoin="miter"></path></svg>